<svg width="68" height="52" viewBox="0 0 68 52" fill="none" xmlns="http://www.w3.org/2000/svg">
<g clip-path="url(#clip0_1029_174)">
<path d="M44.207 31.4417C43.1541 32.9313 42.5988 34.7296 42.5413 36.8368C42.5458 36.9803 42.5332 37.1318 42.5035 37.2913C42.4206 40.3256 43.5316 42.8865 45.8363 44.9739L48.3764 29.3415C46.6816 29.3205 45.2917 30.0206 44.207 31.4417Z" fill="#2B2B26"/>
<path d="M65.4261 34.6532C65.0118 33.7646 64.3536 33.1562 63.4516 32.8279C63.3833 32.5477 63.2854 32.2708 63.158 31.9974C62.7846 31.1522 62.1765 30.562 61.3338 30.2269C62.3299 28.0357 63.4321 25.5142 64.6403 22.6624C64.9116 21.995 64.9801 21.339 64.8459 20.6942C64.7753 20.4983 64.7048 20.3024 64.6342 20.1064C64.27 19.2361 63.6585 18.6163 62.7998 18.247C61.932 17.9028 61.0674 17.9002 60.2062 18.2394C59.9078 18.3578 59.6378 18.5149 59.3963 18.7107C58.9314 19.0523 58.5816 19.5067 58.3468 20.0738C57.6059 21.8756 56.9026 23.5349 56.237 25.0519L55.9602 24.9937C56.3617 23.2671 56.7757 21.3889 57.2023 19.3593C57.3004 18.8559 57.3051 18.3752 57.2164 17.9173C57.1003 17.5346 56.9375 17.1632 56.7281 16.8032C56.2089 16.0467 55.4755 15.567 54.5279 15.364C53.6304 15.1792 52.7909 15.3418 52.0094 15.8519C51.941 15.8837 51.8852 15.9202 51.8419 15.9612C51.1629 16.4234 50.7401 17.0782 50.5736 17.9256C49.6064 22.4541 48.874 26.2594 48.3765 29.3414L45.8364 44.9738C46.6266 45.6871 47.532 46.3571 48.5524 46.9839C50.8961 48.2625 53.452 48.5686 56.22 47.9019C59.1589 47.1556 61.3953 45.4158 62.9293 42.6826C62.9475 42.6325 62.9612 42.5949 62.9703 42.5698C62.9794 42.5448 63.0056 42.5118 63.0489 42.4708C63.6279 41.3479 64.1088 40.4163 64.4918 39.676C65.1186 38.3435 65.4731 37.5645 65.5552 37.339C65.6099 37.1887 65.66 37.0509 65.7056 36.9256C65.8699 36.1625 65.7767 35.405 65.4261 34.6532Z" fill="#2B2B26"/>
<path fill-rule="evenodd" clip-rule="evenodd" d="M26 50C39.2548 50 50 39.2548 50 26C50 12.7452 39.2548 2 26 2C12.7452 2 2 12.7452 2 26C2 39.2548 12.7452 50 26 50ZM37.1515 32.1036C37.0377 31.5113 36.7714 31.0276 36.3526 30.6526C35.9254 30.2429 35.4763 30.0502 35.0052 30.0744C34.5053 30.1022 34.128 30.3286 33.8734 30.7536C33.7008 31.0254 33.5138 31.299 33.3124 31.5745L33.269 31.58C32.1833 33.0029 30.6574 33.8393 28.6912 34.0893C26.6672 34.3466 24.7957 33.942 23.0767 32.8757C22.8612 32.7246 22.6602 32.5717 22.4736 32.417C22.0464 32.0073 21.5973 31.8145 21.1263 31.8387C20.6264 31.8666 20.2491 32.093 19.9945 32.518C19.7109 32.9466 19.626 33.4571 19.7398 34.0494C19.8453 34.6071 20.1116 35.0907 20.5388 35.5004C20.7652 35.7064 21.0167 35.9093 21.2932 36.109V41.3208C21.2932 42.4254 22.1886 43.3208 23.2932 43.3208C24.3977 43.3208 25.2932 42.4254 25.2932 41.3208V37.9959C26.7033 38.3555 28.1718 38.4383 29.6986 38.2442C32.4744 37.8913 34.6313 36.707 36.1694 34.6912L36.1568 34.6392C36.4282 34.2835 36.6851 33.9296 36.9276 33.5776C37.1823 33.1526 37.2569 32.6613 37.1515 32.1036ZM33 8C35.2133 8 37.0933 8.78667 38.64 10.36C40.2133 11.9333 41 13.8133 41 16C41 18.2133 40.2133 20.0933 38.64 21.64C37.0933 23.2133 35.2133 24 33 24C30.7867 24 28.9067 23.2133 27.36 21.64C25.7867 20.0933 25 18.2133 25 16C25 13.8133 25.7867 11.9333 27.36 10.36C28.9067 8.78667 30.7867 8 33 8ZM33 11.2C34.3333 11.2 35.4667 11.68 36.4 12.64C37.3333 13.5733 37.8 14.6933 37.8 16C37.8 17.3333 37.3333 18.4667 36.4 19.4C35.4667 20.3333 34.3333 20.8 33 20.8C31.6933 20.8 30.5733 20.3333 29.64 19.4C28.68 18.4667 28.2 17.3333 28.2 16C28.2 14.6933 28.68 13.5733 29.64 12.64C30.5733 11.68 31.6933 11.2 33 11.2ZM7.79187 22.7187C8.77523 20.5917 10.3424 19.2746 12.4934 18.7676C14.6444 18.2605 16.753 18.7247 18.8192 20.16L18.8076 20.1221C19.4405 20.5956 20.0377 21.1047 20.599 21.6492C20.6067 21.6745 20.6252 21.6972 20.6546 21.7173C21.092 22.237 21.4897 22.7795 21.8478 23.3449C22.0794 23.7235 22.1767 24.1202 22.1398 24.5351C22.0811 24.955 21.9189 25.264 21.6531 25.462C21.3439 25.6703 20.9956 25.7118 20.6083 25.5865C20.2286 25.4865 19.923 25.2471 19.6915 24.8685C19.4306 24.4697 19.1556 24.1013 18.8666 23.7633C18.4753 23.3953 18.0553 23.0476 17.6065 22.7201C16.2244 21.7734 14.8272 21.4665 13.4149 21.7994C11.9809 22.1374 10.9447 23.018 10.3061 24.441C10.0814 24.9272 9.92563 25.4106 9.8389 25.8914C9.75854 26.3164 9.73635 26.7413 9.77231 27.1661C9.78654 27.5959 9.67228 27.9477 9.42953 28.2216C9.16506 28.5005 8.8398 28.6178 8.45377 28.5734C8.07541 28.5543 7.74173 28.3757 7.45272 28.0377C7.17139 27.725 7.02361 27.3537 7.00938 26.9239C6.96181 26.2311 7.0018 25.5583 7.12936 24.9056L7.11784 24.8677C7.24409 24.1339 7.46877 23.4176 7.79187 22.7187Z" fill="#2B2B26"/>
<path d="M47.1362 9.8442C47.3698 10.4141 47.7959 10.8557 48.3319 11.1121L50.586 12.1665C51.2593 12.5085 51.2593 13.4915 50.586 13.8335L48.3319 14.8879C47.7959 15.1443 47.3698 15.6002 47.1362 16.1558L45.3495 20.4872C45.0196 21.1709 44.0713 21.1709 43.7415 20.4872L41.9548 16.1558C41.7211 15.5859 41.2951 15.1443 40.7591 14.8879L38.5051 13.8335C37.8316 13.4915 37.8316 12.5085 38.5051 12.1665L40.7591 11.1121C41.2951 10.8557 41.7211 10.3998 41.9548 9.8442L43.7415 5.51284C44.0713 4.82905 45.0196 4.82905 45.3495 5.51284L47.1362 9.8442Z" fill="#F2AB37"/>
</g>
<defs>
<clipPath id="clip0_1029_174">
<rect width="68" height="52" fill="white"/>
</clipPath>
</defs>
</svg>
